<?xml version="1.0" encoding="UTF-8"?>
<svg version="1.1" viewBox="0 0 1200 1200" width="1280" height="1280" xmlns="http://www.w3.org/2000/svg">
<path transform="translate(590,159)" d="m0 0h20l22 3 21 6 17 7 22 12 23 13 25 14 23 13 25 14 23 13 25 14 23 13 25 14 23 13 25 14 15 10 11 9 10 9 9 11 9 12 9 16 7 16 5 16 3 15 1 8v310l-3 19-6 20-8 18-11 18-11 14-16 16-15 11-28 16-27 15-23 13-25 14-23 13-25 14-23 13-25 14-23 13-25 14-23 13-19 8-18 5-19 3h-30l-24-4-21-7-16-8-24-13-23-13-25-14-23-13-25-14-23-13-25-14-23-13-25-14-23-13-26-15-12-9-10-9-11-11-11-15-10-17-8-19-5-17-3-19v-310l3-19 5-18 8-18 9-16 9-12 12-14 10-9 15-11 21-12 25-14 23-13 25-14 23-13 25-14 23-13 25-14 23-13 25-14 23-13 16-8 16-6 15-4zm-2 60-15 4-13 7-9 7-5 4-8 10-7 14-4 16v19l3 14 5 13 9 13 10 10 13 8 10 4 14 3h18l17-4 16-8 12-11 8-10 6-12 4-14 1-6v-19l-4-16-7-14-10-12-12-9-16-8-12-3zm-51 209-22 4-17 6-16 8-13 8-10 8-12 11-9 11-7 10-10 18-7 18-4 16-2 14v27l3 19 5 17 9 20 16 27 16 28 16 27 7 11 10 13 16 16 15 11 19 10 16 6 16 4 16 2h24l21-3 20-6 19-9 14-9 11-9 14-14 10-13 17-29 28-48 12-21 8-20 4-16 2-14v-27l-3-19-5-17-9-20-10-16-9-11-11-12-14-11-16-10-18-8-17-5-17-3zm-212 245-15 2-13 4-13 7-10 8-9 10-8 14-4 12-2 15 1 17 4 15 8 15 11 13 9 7 14 8 12 4 14 2 16-1 12-3 16-8 10-8 9-9 9-14 6-16 2-16-1-14-5-16-6-12-9-12-7-7-14-9-13-5-14-3zm540 0-18 4-16 8-10 8-9 10-8 13-6 16-2 14 1 16 5 17 8 14 11 12 8 7 14 8 12 4 15 2 15-1 11-3 12-5 12-8 9-8 9-12 7-15 3-12 1-16-2-16-5-14-7-12-12-13-14-9-11-5-13-3-10-1z" fill="#0BD057"/>
</svg>
